# xmcd
#
# Track frame offsets:
# 150
# 16336
# 33792
# 45792
# 60692
# 73255
# 92421
# 109611
# 126453
# 143785
# 162525
# 176019
# 195744
# 214233
# 234672
# 249804
# 264507
# 282103
# 299326
#
# Disc length: 4407 seconds
#
# Revision: 0
# Processed by: cddbd v1.5PL3 Copyright (c) Steve Scherf et al.
# Submitted via: Audion 3.0.2 (http://www.panic.com/audion/)
#
DISCID=12113513
DTITLE=Mixed - Ljud CD #3
DYEAR=1900
DGENRE=
TTITLE0=Billy Porter
TTITLE1=Clean Clean
TTITLE2=2-4-6-8 Motorway
TTITLE3=A Glass Of Champagne
TTITLE4=Bobby Brown
TTITLE5=Baker Man
TTITLE6=Der Kommissar
TTITLE7=Forever Young
TTITLE8=I Wanna Rule The World
TTITLE9=In The Kitchen At Parties
TTITLE10=Life On Mars
TTITLE11=Mickey
TTITLE12=Runaway Boys
TTITLE13=Screaming Jets
TTITLE14=Starman
TTITLE15=Total Eclipse Of Your Heart
TTITLE16=Undercover
TTITLE17=Where Were You
TTITLE18=In The Army Now
EXTD=
EXTT0=
EXTT1=
EXTT2=
EXTT3=
EXTT4=
EXTT5=
EXTT6=
EXTT7=
EXTT8=
EXTT9=
EXTT10=
EXTT11=
EXTT12=
EXTT13=
EXTT14=
EXTT15=
EXTT16=
EXTT17=
EXTT18=
PLAYORDER=
